{"glyphs":{":":{"x_min":0,"x_max":304,"ha":304,"o":"m 75 335 l 75 519 l 229 519 l 229 335 z m 75 0 l 75 184 l 229 184 l 229 0 z"},"$":{"x_min":0,"x_max":649,"ha":649,"o":"m 510 478 q 488 492 462 504 q 440 515 412 524 q 385 534 357 539 l 357 449 q 366 447 376 444 q 386 440 397 437 q 446 422 486 404 q 525 386 553 362 q 581 337 596 302 q 611 267 611 217 q 611 158 590 116 q 570 75 536 48 q 503 22 460 8 q 417 -5 371 -8 l 371 -129 l 291 -129 l 291 -6 q 222 0 154 21 q 86 42 32 74 l 116 245 q 143 228 174 213 q 200 200 234 188 q 269 175 305 170 l 305 258 q 274 266 243 277 q 196 293 162 312 q 128 330 106 354 q 84 377 74 407 q 63 437 63 476 q 63 530 81 572 q 99 613 130 643 q 161 673 202 691 q 244 709 291 714 l 291 815 l 371 815 l 371 713 q 404 709 435 701 q 466 693 494 682 q 523 672 548 660 q 573 649 594 639 z m 401 198 q 401 212 389 222 q 377 233 357 241 l 357 167 q 381 169 391 177 q 401 185 401 198 z m 265 508 q 265 493 275 484 q 285 474 305 466 l 305 542 q 265 537 265 508 z"},"?":{"x_min":0,"x_max":495,"ha":495,"o":"m 95 259 q 95 280 97 300 q 99 321 107 340 q 115 358 131 375 q 147 392 174 406 q 185 412 206 422 q 226 432 246 446 q 267 460 282 478 q 297 495 297 516 q 297 539 279 552 q 261 566 237 566 q 219 566 206 559 q 193 552 184 542 q 174 532 168 522 q 161 511 155 504 l 34 590 q 60 651 116 685 q 172 719 244 719 q 282 719 321 708 q 360 697 392 673 q 423 649 442 610 q 462 571 462 515 q 462 467 444 428 q 427 388 382 358 q 360 343 337 332 q 314 321 294 310 q 275 299 262 287 q 250 275 250 259 z m 98 0 l 98 164 l 253 164 l 253 0 z"},"<":{"x_min":0,"x_max":521,"ha":521,"o":"m 31 298 l 455 556 l 455 354 l 307 259 l 455 172 l 455 -40 l 31 210 z"},"'":{"x_min":0,"x_max":266,"ha":266,"o":"m 53 496 l 53 730 l 213 730 l 213 496 z"},"=":{"x_min":0,"x_max":433,"ha":433,"o":"m 55 101 l 55 221 l 378 221 l 378 101 z m 55 331 l 55 451 l 378 451 l 378 331 z"},"a":{"x_min":0,"x_max":599,"ha":599,"o":"m 203 -10 q 164 -10 130 3 q 96 16 72 38 q 47 61 33 92 q 19 123 19 159 q 19 199 36 232 q 53 265 83 289 q 113 313 154 326 q 196 339 246 339 q 310 339 352 319 l 352 335 q 352 372 330 390 q 309 408 261 408 q 216 408 178 394 q 140 379 98 351 l 43 469 q 147 536 280 536 q 406 536 474 480 q 542 424 542 312 l 542 210 q 542 183 550 172 q 558 162 578 160 l 578 0 q 555 -5 534 -8 q 514 -10 498 -10 q 447 -10 420 8 q 394 27 386 63 l 382 82 q 347 37 301 14 q 255 -10 203 -10 z m 260 126 q 277 126 295 132 q 313 137 327 146 q 338 154 345 164 q 352 173 352 183 l 352 222 q 335 228 315 232 q 295 236 279 236 q 244 236 221 219 q 198 202 198 176 q 198 154 216 140 q 233 126 260 126 z"},"L":{"x_min":0,"x_max":585,"ha":585,"o":"m 61 0 l 61 710 l 256 710 l 256 170 l 578 170 l 578 0 z"},"3":{"x_min":0,"x_max":581,"ha":581,"o":"m 408 237 q 439 232 464 216 q 490 200 508 176 q 527 152 538 122 q 548 91 548 57 q 548 10 528 -28 q 508 -66 472 -92 q 435 -119 382 -133 q 329 -147 263 -147 q 186 -147 127 -128 q 68 -108 20 -67 l 117 71 q 146 48 178 38 q 211 27 253 27 q 304 27 328 42 q 351 58 351 92 q 351 130 321 146 q 291 163 223 163 l 192 163 l 192 295 l 227 295 q 275 295 304 314 q 333 332 333 364 q 333 388 316 402 q 299 415 268 415 q 233 415 202 398 q 172 380 149 345 l 29 486 q 47 506 74 522 q 102 539 136 551 q 171 563 210 570 q 249 576 290 576 q 345 576 391 564 q 437 551 469 528 q 501 505 519 472 q 537 440 537 400 q 537 370 527 343 q 517 316 500 294 q 483 272 460 257 q 436 242 408 237 z"},";":{"x_min":0,"x_max":305,"ha":305,"o":"m 76 335 l 76 519 l 230 519 l 230 335 z m 95 -157 l 131 0 l 74 0 l 74 184 l 231 184 l 231 0 l 177 -157 z"},"J":{"x_min":0,"x_max":498,"ha":498,"o":"m 42 192 q 45 190 55 185 q 65 180 80 175 q 95 170 114 166 q 134 162 155 162 q 186 162 205 172 q 224 182 234 204 q 244 227 247 262 q 250 298 250 349 l 250 710 l 445 710 l 445 349 q 445 268 436 202 q 427 135 397 88 q 367 41 310 15 q 252 -11 155 -11 q 65 -11 1 33 z"},"V":{"x_min":0,"x_max":672,"ha":672,"o":"m 198 710 l 337 245 l 474 710 l 679 710 l 418 0 l 256 0 l -8 710 z"},"\"":{"x_min":0,"x_max":476,"ha":476,"o":"m 53 496 l 53 730 l 213 730 l 213 496 z m 263 496 l 263 730 l 423 730 l 423 496 z"},"7":{"x_min":0,"x_max":593,"ha":593,"o":"m 301 411 l 30 411 l 30 584 l 600 584 l 253 -126 l 38 -126 z"},"S":{"x_min":0,"x_max":617,"ha":617,"o":"m 491 478 q 461 496 429 510 q 402 522 368 532 q 335 543 303 543 q 277 543 262 535 q 246 527 246 508 q 246 494 255 485 q 264 476 281 468 q 298 461 322 454 q 347 447 378 437 q 427 422 466 404 q 506 386 534 362 q 562 337 577 302 q 592 267 592 217 q 592 153 568 110 q 545 66 506 40 q 468 14 420 2 q 371 -9 322 -9 q 283 -9 242 -3 q 201 3 160 14 q 120 25 82 40 q 45 55 13 74 l 97 245 q 132 223 170 206 q 202 191 242 179 q 283 167 325 167 q 357 167 370 176 q 382 184 382 198 q 382 213 370 224 q 357 234 335 242 q 313 250 284 258 q 256 266 224 277 q 177 293 143 312 q 109 330 87 354 q 65 377 54 407 q 44 437 44 476 q 44 535 66 580 q 87 625 124 655 q 161 685 208 700 q 256 716 309 716 q 348 716 385 708 q 422 701 456 690 q 491 678 521 664 q 551 651 575 639 z"},"}":{"x_min":0,"x_max":374,"ha":374,"o":"m 54 590 l 54 740 l 256 740 q 262 740 270 734 q 279 728 279 710 l 279 501 q 279 487 284 474 q 290 460 298 450 q 307 439 318 432 q 328 426 339 426 l 339 296 q 318 291 298 271 q 279 251 279 219 l 279 -1 q 279 -20 270 -26 q 262 -31 256 -31 l 54 -31 l 54 119 l 109 119 l 109 284 q 109 311 122 328 q 135 346 150 360 q 134 374 122 391 q 109 408 109 436 l 109 590 z"},"Z":{"x_min":0,"x_max":622,"ha":622,"o":"m 27 145 l 359 540 l 42 540 l 42 710 l 584 710 l 584 565 l 272 170 l 590 170 l 590 0 l 27 0 z"},"x":{"x_min":0,"x_max":554,"ha":554,"o":"m 192 526 l 267 397 l 277 376 l 287 397 l 362 526 l 555 526 l 379 263 l 560 0 l 367 0 l 286 129 l 277 149 l 268 129 l 187 0 l -6 0 l 175 263 l -1 526 z"},")":{"x_min":0,"x_max":341,"ha":341,"o":"m 316 348 q 316 294 303 240 q 290 186 268 134 q 246 81 218 30 q 189 -20 158 -66 l 20 1 q 70 95 104 179 q 139 263 139 345 q 139 399 124 456 q 109 514 88 565 q 68 616 48 656 q 27 695 15 714 l 160 772 q 193 716 222 662 q 250 607 271 554 q 292 502 304 450 q 316 399 316 348 z"},"&":{"x_min":0,"x_max":749,"ha":749,"o":"m 506 0 l 468 40 q 425 14 378 2 q 332 -10 285 -10 q 223 -10 176 10 q 130 30 98 62 q 67 94 51 134 q 35 175 35 216 q 35 277 64 322 q 94 366 135 399 q 103 438 90 468 q 77 499 77 536 q 77 579 93 614 q 109 648 136 671 q 164 694 202 706 q 240 719 285 719 q 324 719 362 710 q 399 700 428 680 q 458 659 476 626 q 494 594 494 548 q 494 494 469 451 q 444 408 402 372 l 484 285 q 495 313 501 346 q 507 378 507 416 l 660 416 q 659 339 642 278 q 625 216 596 167 l 755 0 z m 305 138 q 335 138 364 151 l 251 272 q 217 244 217 216 q 217 205 222 192 q 226 178 236 166 q 247 154 264 146 q 281 138 305 138 z m 249 544 q 249 531 256 522 q 264 512 282 495 q 302 509 311 520 q 320 530 320 546 q 320 563 310 572 q 301 581 285 581 q 268 581 258 570 q 249 560 249 544 z"},"_":{"x_min":0,"x_max":441,"ha":441,"o":"m 44 -170 l 44 0 l 397 0 l 397 -170 z"},"v":{"x_min":0,"x_max":563,"ha":563,"o":"m 178 0 l 1 526 l 196 526 l 290 149 l 385 526 l 562 526 l 385 0 z"},"O":{"x_min":0,"x_max":765,"ha":765,"o":"m 381 -6 q 300 -6 234 25 q 168 56 121 106 q 74 157 48 222 q 22 287 22 356 q 22 426 49 491 q 76 556 124 606 q 173 655 240 684 q 306 714 385 714 q 466 714 532 683 q 598 652 645 601 q 692 550 718 485 q 743 420 743 352 q 743 282 716 218 q 689 153 641 104 q 593 54 526 24 q 460 -6 381 -6 z m 220 354 q 220 318 230 284 q 240 251 260 225 q 280 199 310 183 q 341 167 383 167 q 425 167 456 184 q 487 200 506 226 q 526 253 536 287 q 545 321 545 356 q 545 392 535 426 q 525 459 504 484 q 484 510 454 526 q 423 541 382 541 q 340 541 310 525 q 279 509 259 482 q 239 456 230 422 q 220 389 220 354 z"},"(":{"x_min":0,"x_max":342,"ha":342,"o":"m 25 348 q 25 399 37 450 q 49 502 70 554 q 91 607 120 662 q 148 716 181 772 l 326 714 q 314 695 294 656 q 273 616 252 565 q 232 514 217 456 q 202 399 202 345 q 202 263 236 179 q 271 95 321 1 l 183 -66 q 152 -20 124 30 q 95 81 73 134 q 51 186 38 240 q 25 294 25 348 z"},"C":{"x_min":0,"x_max":691,"ha":691,"o":"m 22 361 q 22 426 46 489 q 71 552 118 602 q 165 652 232 683 q 299 714 385 714 q 488 714 564 672 q 639 629 676 559 l 527 453 q 517 479 500 496 q 484 513 464 523 q 444 533 422 537 q 401 541 381 541 q 339 541 308 524 q 278 508 258 482 q 239 455 230 422 q 220 388 220 355 q 220 318 231 284 q 242 250 263 224 q 284 198 314 182 q 345 167 383 167 q 403 167 424 172 q 445 176 464 186 q 484 197 500 214 q 515 230 524 254 l 683 159 q 667 120 634 89 q 602 58 560 37 q 519 16 472 5 q 424 -6 379 -6 q 300 -6 234 26 q 169 57 122 109 q 74 161 48 227 q 22 293 22 361 z"},"W":{"x_min":0,"x_max":1057,"ha":1057,"o":"m 287 710 l 466 710 l 528 491 l 591 710 l 770 710 l 653 371 l 704 223 l 857 710 l 1069 710 l 791 0 l 629 0 l 528 254 l 428 0 l 266 0 l -12 710 l 199 710 l 353 223 l 402 371 z"},"A":{"x_min":0,"x_max":667,"ha":667,"o":"m 245 710 l 423 710 l 669 0 l 471 0 l 428 139 l 239 139 l 197 0 l -2 0 z m 397 269 l 334 489 l 268 269 z"},"f":{"x_min":0,"x_max":402,"ha":402,"o":"m 85 0 l 85 322 l 20 322 l 20 465 l 85 465 l 85 522 q 85 571 99 612 q 113 652 138 680 q 163 709 198 724 q 234 740 278 740 q 344 740 424 710 l 392 566 q 375 572 356 576 q 336 580 321 580 q 275 580 275 529 l 275 465 l 390 465 l 390 322 l 275 322 l 275 0 z"},"Q":{"x_min":0,"x_max":765,"ha":765,"o":"m 547 34 q 510 15 468 5 q 427 -5 381 -5 q 300 -5 234 26 q 168 56 121 106 q 74 157 48 222 q 22 287 22 356 q 22 426 49 491 q 76 556 124 606 q 173 656 240 686 q 306 715 385 715 q 466 715 532 684 q 598 652 645 601 q 692 550 718 485 q 743 420 743 352 q 743 286 720 226 q 696 165 653 117 l 761 0 l 579 0 z m 383 168 q 405 168 420 172 l 303 300 l 485 300 l 524 257 q 535 280 540 305 q 545 330 545 356 q 545 392 535 426 q 525 459 504 485 q 484 511 454 526 q 423 542 382 542 q 340 542 310 526 q 279 509 259 482 q 239 456 230 422 q 220 389 220 354 q 220 318 230 284 q 240 251 260 225 q 280 199 310 184 q 341 168 383 168 z"},"w":{"x_min":0,"x_max":862,"ha":862,"o":"m 693 526 l 872 526 l 657 0 l 502 0 l 431 200 l 360 0 l 205 0 l -10 526 l 169 526 l 296 173 l 329 286 l 235 526 l 386 526 l 431 372 l 476 526 l 627 526 l 533 286 l 566 173 z"},"-":{"x_min":0,"x_max":413,"ha":413,"o":"m 50 191 l 50 361 l 363 361 l 363 191 z"},"E":{"x_min":0,"x_max":597,"ha":597,"o":"m 567 170 l 567 0 l 61 0 l 61 710 l 558 710 l 558 540 l 256 540 l 256 440 l 514 440 l 514 282 l 256 282 l 256 170 z"},"s":{"x_min":0,"x_max":501,"ha":501,"o":"m 265 -10 q 196 -10 130 12 q 64 35 18 78 l 83 192 q 132 159 178 141 q 223 123 261 123 q 301 123 301 148 q 301 162 286 172 q 270 182 225 195 q 169 211 132 226 q 94 242 70 260 q 47 278 37 300 q 27 322 27 352 q 27 392 43 426 q 59 460 88 485 q 116 510 156 524 q 195 537 242 537 q 300 537 352 522 q 405 507 458 461 l 386 347 q 337 379 304 392 q 271 406 242 406 q 225 406 214 400 q 203 393 203 379 q 203 364 219 354 q 235 345 282 333 q 339 318 378 302 q 417 285 440 266 q 464 246 474 222 q 484 197 484 165 q 484 124 469 92 q 454 60 426 37 q 397 14 356 2 q 316 -10 265 -10 z"},">":{"x_min":0,"x_max":521,"ha":521,"o":"m 490 210 l 66 -40 l 66 172 l 214 259 l 66 354 l 66 556 l 490 298 z"},"l":{"x_min":0,"x_max":355,"ha":355,"o":"m 44 730 l 234 730 l 234 209 q 234 149 283 149 q 295 149 309 153 q 323 157 335 164 l 359 24 q 325 8 282 -1 q 240 -10 202 -10 q 126 -10 85 29 q 44 68 44 142 z"},"8":{"x_min":0,"x_max":611,"ha":611,"o":"m 573 221 q 573 169 552 126 q 531 84 494 54 q 458 23 409 6 q 360 -10 305 -10 q 252 -10 204 6 q 155 23 118 54 q 81 85 59 129 q 37 173 37 227 q 37 254 45 277 q 53 300 66 319 q 78 338 93 353 q 108 368 123 379 q 94 396 76 430 q 57 464 57 499 q 57 550 80 590 q 104 629 140 656 q 176 683 220 696 q 264 710 305 710 q 346 710 390 696 q 434 683 470 657 q 507 631 530 592 q 554 552 554 501 q 554 466 535 431 q 516 396 487 379 q 502 368 518 352 q 533 337 545 317 q 557 297 565 273 q 573 249 573 221 z m 380 232 q 380 265 358 283 q 337 301 305 301 q 272 301 251 282 q 230 264 230 232 q 230 203 252 183 q 273 163 305 163 q 338 163 359 183 q 380 203 380 232 z m 250 495 q 250 468 268 455 q 285 442 305 442 q 325 442 343 455 q 361 468 361 495 q 361 515 346 529 q 330 543 305 543 q 280 543 265 529 q 250 515 250 495 z"},"\\":{"x_min":0,"x_max":694,"ha":694,"o":"m 235 710 l 670 0 l 461 0 l 25 710 z"},"e":{"x_min":0,"x_max":609,"ha":609,"o":"m 307 -10 q 238 -10 184 12 q 130 33 94 70 q 57 107 38 155 q 19 203 19 256 q 19 313 38 364 q 56 415 92 453 q 129 491 182 514 q 236 536 307 536 q 377 536 431 514 q 485 491 522 454 q 558 416 576 366 q 595 317 595 263 q 595 248 594 232 q 592 217 590 205 l 221 205 q 224 163 252 144 q 280 126 313 126 q 344 126 372 140 q 399 154 408 179 l 569 133 q 537 70 470 30 q 404 -10 307 -10 z m 391 319 q 386 357 363 379 q 340 401 304 401 q 268 401 245 379 q 222 357 217 319 z"},"b":{"x_min":0,"x_max":647,"ha":647,"o":"m 383 -10 q 264 -10 213 82 l 213 0 l 48 0 l 48 730 l 238 730 l 238 448 q 261 491 303 514 q 345 536 402 536 q 450 536 492 515 q 533 494 563 458 q 593 421 610 370 q 627 320 627 261 q 627 202 608 152 q 590 103 558 67 q 525 31 480 10 q 435 -10 383 -10 z m 328 150 q 375 150 404 180 q 432 210 432 260 q 432 284 424 305 q 417 326 404 342 q 392 358 374 367 q 357 376 336 376 q 306 376 279 354 q 252 333 238 298 l 238 204 q 275 150 328 150 z"},"%":{"x_min":0,"x_max":851,"ha":851,"o":"m 211 404 q 173 404 140 416 q 108 429 84 450 q 60 471 46 500 q 33 529 33 562 q 33 595 46 624 q 60 653 84 674 q 108 695 140 708 q 173 720 211 720 q 248 720 280 708 q 313 695 337 674 q 361 653 375 624 q 389 595 389 562 q 389 529 375 500 q 361 471 337 450 q 313 429 280 416 q 248 404 211 404 z m 211 494 q 231 494 245 514 q 259 534 259 562 q 259 590 245 610 q 231 630 211 630 q 191 630 177 610 q 163 590 163 562 q 163 534 177 514 q 191 494 211 494 z m 640 -10 q 602 -10 570 2 q 537 15 513 36 q 489 57 476 86 q 462 115 462 148 q 462 181 476 210 q 489 239 513 260 q 537 281 570 294 q 602 306 640 306 q 677 306 710 294 q 742 281 766 260 q 790 239 804 210 q 818 181 818 148 q 818 115 804 86 q 790 57 766 36 q 742 15 710 2 q 677 -10 640 -10 z m 640 80 q 660 80 674 100 q 688 120 688 148 q 688 176 674 196 q 660 216 640 216 q 620 216 606 196 q 592 176 592 148 q 592 120 606 100 q 620 80 640 80 z m 117 65 l 400 384 l 651 721 l 734 646 l 463 337 l 200 -10 z"},"m":{"x_min":0,"x_max":940,"ha":940,"o":"m 896 0 l 706 0 l 706 296 q 706 335 690 352 q 675 370 653 370 q 630 370 604 349 q 579 328 567 295 l 567 0 l 377 0 l 377 296 q 377 335 362 352 q 346 370 324 370 q 301 370 276 349 q 250 328 238 295 l 238 0 l 48 0 l 48 526 l 219 526 l 219 448 q 247 491 296 514 q 345 536 412 536 q 444 536 468 528 q 492 521 510 508 q 527 495 538 479 q 548 463 554 445 q 582 488 630 512 q 679 536 741 536 q 793 536 824 516 q 854 497 870 468 q 886 439 891 406 q 896 373 896 346 z"},"#":{"x_min":0,"x_max":757,"ha":757,"o":"m 721 397 l 562 397 l 542 310 l 670 310 l 670 170 l 508 170 l 467 0 l 316 0 l 358 170 l 298 170 l 257 0 l 106 0 l 148 170 l 36 170 l 36 310 l 182 310 l 202 397 l 87 397 l 87 527 l 234 527 l 279 710 l 430 710 l 384 527 l 444 527 l 489 710 l 640 710 l 594 527 l 721 527 z m 392 310 l 412 397 l 352 397 l 332 310 z"},",":{"x_min":0,"x_max":257,"ha":257,"o":"m 71 -157 l 107 0 l 50 0 l 50 184 l 207 184 l 207 0 l 153 -157 z"},"n":{"x_min":0,"x_max":621,"ha":621,"o":"m 577 0 l 387 0 l 387 296 q 387 335 370 352 q 352 370 329 370 q 305 370 278 349 q 251 328 238 295 l 238 0 l 48 0 l 48 526 l 219 526 l 219 448 q 247 491 298 514 q 348 536 417 536 q 471 536 502 516 q 534 497 550 468 q 567 439 572 406 q 577 373 577 346 z"},"h":{"x_min":0,"x_max":621,"ha":621,"o":"m 577 0 l 387 0 l 387 296 q 387 335 370 352 q 352 370 326 370 q 317 370 304 364 q 292 359 280 350 q 267 340 256 326 q 245 312 238 295 l 238 0 l 48 0 l 48 730 l 238 730 l 238 448 q 266 491 311 514 q 356 536 412 536 q 467 536 500 517 q 533 498 550 470 q 567 441 572 408 q 577 375 577 346 z"},"z":{"x_min":0,"x_max":494,"ha":494,"o":"m 22 112 l 262 396 l 37 396 l 37 526 l 460 526 l 460 414 l 221 130 l 469 130 l 469 0 l 22 0 z"},"B":{"x_min":0,"x_max":690,"ha":690,"o":"m 665 182 q 665 134 645 100 q 625 65 590 43 q 555 21 508 10 q 462 0 410 0 l 61 0 l 61 710 l 473 710 q 510 710 540 694 q 570 678 591 652 q 612 627 624 594 q 635 562 635 528 q 635 478 610 432 q 584 387 533 364 q 594 346 630 302 q 665 257 665 182 z m 467 222 q 467 248 453 266 q 439 283 417 283 l 256 283 l 256 164 l 410 164 q 434 164 450 179 q 467 194 467 222 z m 256 544 l 256 435 l 389 435 q 409 435 426 446 q 442 457 442 490 q 442 519 428 532 q 414 544 395 544 z"},"K":{"x_min":0,"x_max":690,"ha":690,"o":"m 61 0 l 61 710 l 256 710 l 256 440 l 472 710 l 692 710 l 434 392 l 710 0 l 486 0 l 310 261 l 256 205 l 256 0 z"},"R":{"x_min":0,"x_max":675,"ha":675,"o":"m 61 0 l 61 710 l 387 710 q 439 710 483 688 q 527 667 558 632 q 590 598 608 554 q 626 509 626 464 q 626 402 599 348 q 572 295 524 261 l 674 0 l 454 0 l 329 218 l 256 218 l 256 0 z m 256 388 l 379 388 q 397 388 412 408 q 428 428 428 464 q 428 501 410 520 q 392 540 374 540 l 256 540 z"},"T":{"x_min":0,"x_max":624,"ha":624,"o":"m 614 540 l 410 540 l 410 0 l 215 0 l 215 540 l 10 540 l 10 710 l 614 710 z"},"P":{"x_min":0,"x_max":623,"ha":623,"o":"m 61 0 l 61 710 l 367 710 q 419 710 463 688 q 507 667 538 632 q 570 598 588 554 q 606 509 606 464 q 606 417 589 372 q 572 328 542 294 q 511 259 468 238 q 424 218 372 218 l 256 218 l 256 0 z m 256 388 l 359 388 q 377 388 392 404 q 408 421 408 464 q 408 508 390 524 q 372 540 354 540 l 256 540 z"},"|":{"x_min":0,"x_max":312,"ha":312,"o":"m 76 -130 l 76 775 l 236 775 l 236 -130 z"},"t":{"x_min":0,"x_max":423,"ha":423,"o":"m 417 29 q 377 12 332 0 q 286 -11 242 -11 q 210 -11 181 -3 q 152 5 130 23 q 109 41 96 70 q 84 99 84 142 l 84 383 l 19 383 l 19 526 l 84 526 l 84 691 l 274 691 l 274 526 l 377 526 l 377 383 l 274 383 l 274 209 q 274 183 285 172 q 296 162 315 162 q 329 162 347 166 q 365 171 383 179 z"},"M":{"x_min":0,"x_max":854,"ha":854,"o":"m 598 0 l 598 374 l 479 111 l 375 111 l 256 374 l 256 0 l 61 0 l 61 710 l 274 710 l 427 376 l 581 710 l 793 710 l 793 0 z"},"g":{"x_min":0,"x_max":647,"ha":647,"o":"m 250 0 q 199 0 156 20 q 114 41 84 76 q 54 112 38 160 q 21 208 21 264 q 21 323 39 373 q 57 423 90 459 q 122 495 167 516 q 212 536 266 536 q 323 536 366 514 q 409 491 434 448 l 434 526 l 599 526 l 599 48 q 599 -14 576 -64 q 553 -114 511 -149 q 469 -184 410 -204 q 351 -223 279 -223 q 195 -223 133 -197 q 71 -171 23 -122 l 123 -18 q 152 -45 192 -64 q 233 -82 279 -82 q 305 -82 328 -75 q 352 -68 370 -52 q 388 -37 398 -12 q 409 13 409 48 l 409 82 q 386 40 344 20 q 301 0 250 0 z m 318 150 q 347 150 368 164 q 390 177 409 204 l 409 298 q 395 334 368 355 q 340 376 310 376 q 290 376 272 366 q 255 357 242 342 q 229 326 222 304 q 215 283 215 259 q 215 210 244 180 q 273 150 318 150 z"},"j":{"x_min":0,"x_max":290,"ha":290,"o":"m 36 -209 q -6 -209 -44 -195 q -82 -181 -113 -155 l -35 -26 q -17 -46 12 -46 q 52 -46 52 -3 l 52 526 l 242 526 l 242 12 q 242 -37 227 -78 q 212 -118 184 -148 q 157 -177 119 -193 q 81 -209 36 -209 z m 52 570 l 52 730 l 242 730 l 242 570 z"},"i":{"x_min":0,"x_max":286,"ha":286,"o":"m 48 0 l 48 526 l 238 526 l 238 0 z m 48 570 l 48 730 l 238 730 l 238 570 z"},"y":{"x_min":0,"x_max":555,"ha":555,"o":"m 44 -53 q 90 -70 122 -70 q 183 -70 189 0 l -2 526 l 193 526 l 293 161 l 374 526 l 551 526 l 373 -63 q 361 -102 339 -134 q 317 -165 286 -188 q 256 -210 219 -222 q 182 -234 142 -234 q 91 -234 44 -215 z"},"@":{"x_min":0,"x_max":852,"ha":852,"o":"m 425 603 q 498 603 567 580 q 636 558 690 512 q 743 465 775 393 q 807 321 807 221 q 807 207 806 184 q 804 161 799 135 q 794 109 784 82 q 773 55 755 33 q 737 11 710 -2 q 683 -16 645 -16 q 617 -16 598 -9 q 579 -2 567 9 q 555 20 549 33 q 543 46 541 57 q 507 25 463 10 q 419 -6 372 -6 q 295 -6 256 33 q 217 72 217 138 q 217 181 233 210 q 249 240 275 258 q 301 276 334 284 q 368 292 403 292 q 441 292 466 286 q 491 279 505 272 q 505 292 500 309 q 495 326 483 338 q 471 350 450 356 q 430 363 399 363 q 357 363 324 352 q 292 341 272 322 l 240 419 q 278 445 323 456 q 368 468 418 468 q 490 468 530 447 q 570 426 589 394 q 608 362 612 325 q 615 288 615 255 l 615 188 q 615 166 616 144 q 617 122 622 104 q 627 86 636 75 q 646 64 664 64 q 688 64 702 83 q 715 102 722 128 q 730 155 732 182 q 734 209 734 225 q 734 292 712 348 q 690 405 649 446 q 608 487 550 510 q 492 533 419 533 q 347 533 290 510 q 232 487 192 446 q 153 406 132 350 q 111 295 111 229 q 111 166 130 110 q 150 55 188 14 q 225 -28 279 -52 q 333 -76 403 -76 q 429 -76 450 -72 q 471 -69 490 -64 q 508 -59 525 -52 q 542 -45 561 -38 l 581 -106 q 538 -126 492 -136 q 445 -146 400 -146 q 325 -146 259 -120 q 193 -93 144 -44 q 94 5 66 74 q 37 144 37 231 q 37 323 69 392 q 101 462 154 509 q 208 556 278 580 q 348 603 425 603 z m 465 100 q 478 107 491 119 q 504 131 504 148 l 504 189 q 489 195 462 202 q 434 208 405 208 q 363 208 344 191 q 326 174 326 139 q 326 83 385 83 q 399 83 422 86 q 445 89 465 100 z"},".":{"x_min":0,"x_max":254,"ha":254,"o":"m 50 0 l 50 184 l 204 184 l 204 0 z"},"p":{"x_min":0,"x_max":647,"ha":647,"o":"m 402 -10 q 345 -10 303 12 q 261 35 238 78 l 238 -213 l 48 -213 l 48 526 l 213 526 l 213 447 q 241 490 282 513 q 323 536 383 536 q 435 536 480 516 q 525 495 557 459 q 589 423 608 373 q 626 323 626 265 q 626 206 609 156 q 592 105 562 68 q 532 31 491 10 q 450 -10 402 -10 z m 336 150 q 357 150 374 159 q 392 168 404 184 q 417 200 424 221 q 432 242 432 266 q 432 316 404 346 q 375 376 328 376 q 275 376 238 322 l 238 231 q 252 196 279 173 q 306 150 336 150 z"},"X":{"x_min":0,"x_max":657,"ha":657,"o":"m 200 710 l 329 486 l 458 710 l 668 710 l 431 350 l 660 0 l 450 0 l 329 214 l 208 0 l -3 0 l 226 350 l -11 710 z"},"*":{"x_min":0,"x_max":364,"ha":364,"o":"m 65 499 l 114 577 l 42 598 l 66 675 l 141 639 l 134 721 l 230 721 l 223 639 l 298 675 l 322 598 l 250 577 l 299 499 l 230 454 l 182 537 l 134 454 z"},"Y":{"x_min":0,"x_max":666,"ha":666,"o":"m 205 710 l 332 403 l 462 710 l 674 710 l 429 235 l 429 0 l 235 0 l 235 237 l -6 710 z"},"c":{"x_min":0,"x_max":577,"ha":577,"o":"m 19 263 q 19 317 38 366 q 57 416 94 454 q 130 491 184 514 q 238 536 308 536 q 404 536 468 496 q 533 456 565 393 l 380 337 q 353 376 307 376 q 268 376 241 346 q 214 317 214 263 q 214 209 241 180 q 268 150 307 150 q 353 150 380 189 l 565 133 q 533 70 468 30 q 404 -10 308 -10 q 238 -10 184 12 q 130 35 94 72 q 57 110 38 160 q 19 209 19 263 z"},"!":{"x_min":0,"x_max":362,"ha":362,"o":"m 86 300 l 86 717 l 276 717 l 276 300 z m 86 0 l 86 184 l 276 184 l 276 0 z"},"/":{"x_min":0,"x_max":777,"ha":777,"o":"m 751 710 l 235 0 l 26 0 l 541 710 z"},"[":{"x_min":0,"x_max":371,"ha":371,"o":"m 79 -40 l 79 740 l 324 740 l 324 590 l 254 590 l 254 110 l 324 110 l 324 -40 z"},"6":{"x_min":0,"x_max":609,"ha":609,"o":"m 572 240 q 572 187 552 142 q 532 96 496 62 q 460 29 412 10 q 363 -10 306 -10 q 178 -10 108 82 q 39 174 39 340 q 39 428 58 498 q 78 567 115 616 q 152 664 205 690 q 258 716 325 716 q 455 716 551 620 l 446 498 q 392 552 322 552 q 273 552 244 522 q 216 493 214 439 q 252 473 322 473 q 376 473 422 456 q 467 438 500 406 q 534 375 553 332 q 572 290 572 240 z m 306 149 q 323 149 338 156 q 354 164 366 176 q 377 189 384 206 q 391 222 391 240 q 391 275 366 300 q 341 324 306 324 q 271 324 246 300 q 221 275 221 240 q 221 222 228 206 q 235 189 246 176 q 258 164 274 156 q 289 149 306 149 z"},"r":{"x_min":0,"x_max":416,"ha":416,"o":"m 405 364 q 350 364 305 352 q 260 340 238 312 l 238 0 l 48 0 l 48 526 l 222 526 l 222 426 q 250 479 292 508 q 333 536 381 536 q 400 536 405 535 z"},"2":{"x_min":0,"x_max":599,"ha":599,"o":"m 31 0 q 31 50 39 88 q 47 126 65 156 q 83 187 112 211 q 140 235 182 258 q 236 287 268 304 q 299 322 315 333 q 331 344 336 352 q 340 359 340 368 q 340 393 324 405 q 308 417 280 417 q 247 417 218 400 q 188 383 156 345 l 36 486 q 55 507 85 524 q 115 542 152 554 q 188 567 229 574 q 270 581 313 581 q 428 581 488 534 q 547 486 547 401 q 547 370 539 346 q 531 322 518 302 q 504 283 485 267 q 466 251 445 237 q 420 220 392 204 q 365 189 338 170 l 558 170 l 558 0 z"},"{":{"x_min":0,"x_max":374,"ha":374,"o":"m 265 590 l 265 436 q 265 408 252 391 q 240 374 224 360 q 239 346 252 328 q 265 311 265 284 l 265 119 l 320 119 l 320 -31 l 118 -31 q 112 -31 104 -26 q 95 -20 95 -1 l 95 219 q 95 251 76 271 q 56 291 35 296 l 35 426 q 45 426 56 432 q 67 439 76 450 q 84 460 90 474 q 95 487 95 501 l 95 710 q 95 728 104 734 q 112 740 118 740 l 320 740 l 320 590 z"},"9":{"x_min":0,"x_max":589,"ha":589,"o":"m 27 321 q 27 373 47 419 q 67 465 103 498 q 139 532 188 552 q 236 571 293 571 q 357 571 406 548 q 456 524 490 479 q 524 434 542 369 q 560 304 560 221 q 560 133 540 64 q 521 -6 484 -54 q 447 -103 394 -129 q 341 -155 274 -155 q 144 -155 48 -59 l 153 63 q 207 9 277 9 q 326 9 354 38 q 383 68 385 122 q 347 88 277 88 q 223 88 178 106 q 132 123 98 154 q 65 186 46 228 q 27 271 27 321 z m 293 412 q 276 412 260 404 q 245 397 234 384 q 222 372 215 356 q 208 339 208 321 q 208 286 233 262 q 258 237 293 237 q 328 237 353 262 q 378 286 378 321 q 378 339 371 356 q 364 372 352 384 q 341 397 326 404 q 310 412 293 412 z"}," ":{"x_min":0,"x_max":225,"ha":225,"o":""},"I":{"x_min":0,"x_max":317,"ha":317,"o":"m 61 0 l 61 710 l 256 710 l 256 0 z"},"H":{"x_min":0,"x_max":750,"ha":750,"o":"m 689 710 l 689 0 l 494 0 l 494 278 l 256 278 l 256 0 l 61 0 l 61 710 l 256 710 l 256 448 l 494 448 l 494 710 z"},"4":{"x_min":0,"x_max":586,"ha":586,"o":"m 272 -127 l 272 -3 l 15 -3 l 15 167 l 332 571 l 462 571 l 462 167 l 550 167 l 550 -3 l 462 -3 l 462 -127 z m 202 167 l 294 167 l 294 287 z"},"~":{"x_min":0,"x_max":610,"ha":610,"o":"m 45 216 q 45 228 53 254 q 61 281 80 308 q 100 334 132 354 q 163 374 211 374 q 241 374 266 366 q 290 358 312 348 q 334 339 355 331 q 376 323 400 323 q 422 323 436 330 q 450 338 457 347 q 464 356 466 364 q 469 372 469 374 l 569 374 q 569 366 560 340 q 552 315 532 287 q 513 259 480 238 q 448 216 399 216 q 370 216 346 224 q 322 231 300 240 q 277 249 256 256 q 234 264 210 264 q 187 264 174 257 q 161 250 155 241 q 149 232 148 224 q 146 217 146 216 l 45 216 z"},"D":{"x_min":0,"x_max":716,"ha":716,"o":"m 61 0 l 61 710 l 334 710 q 422 710 489 682 q 556 654 601 606 q 646 558 669 494 q 692 429 692 356 q 692 275 666 210 q 641 144 594 98 q 547 51 481 26 q 415 0 334 0 z m 494 356 q 494 397 483 431 q 472 465 452 489 q 431 513 401 526 q 371 540 334 540 l 256 540 l 256 170 l 334 170 q 372 170 402 184 q 432 198 452 223 q 473 248 484 282 q 494 316 494 356 z"},"^":{"x_min":0,"x_max":625,"ha":625,"o":"m 36 303 l 234 710 l 392 710 l 589 303 l 436 303 l 313 556 l 187 303 z"},"0":{"x_min":0,"x_max":614,"ha":614,"o":"m 572 293 q 572 227 552 172 q 532 116 496 76 q 461 35 412 12 q 364 -10 307 -10 q 250 -10 202 12 q 153 35 118 76 q 82 116 62 172 q 42 227 42 293 q 42 359 62 414 q 82 470 118 510 q 153 551 202 574 q 250 597 307 597 q 364 597 412 574 q 461 551 496 510 q 532 470 552 414 q 572 359 572 293 z m 380 293 q 380 351 360 387 q 339 423 307 423 q 273 423 252 387 q 232 351 232 293 q 232 235 252 200 q 273 164 307 164 q 339 164 360 200 q 380 235 380 293 z"},"F":{"x_min":0,"x_max":563,"ha":563,"o":"m 61 0 l 61 710 l 548 710 l 548 540 l 256 540 l 256 422 l 494 422 l 494 264 l 256 264 l 256 0 z"},"`":{"x_min":0,"x_max":284,"ha":284,"o":"m 45 730 l 214 730 l 264 588 l 144 556 z"},"k":{"x_min":0,"x_max":582,"ha":582,"o":"m 395 0 l 276 192 l 238 150 l 238 0 l 48 0 l 48 730 l 238 730 l 238 331 l 378 526 l 578 526 l 397 296 l 596 0 z"},"u":{"x_min":0,"x_max":638,"ha":638,"o":"m 207 -10 q 127 -10 85 38 q 43 87 43 180 l 43 526 l 233 526 l 233 223 q 233 188 248 169 q 264 150 291 150 q 313 150 336 160 q 359 170 382 204 l 382 526 l 572 526 l 572 210 q 572 183 580 172 q 588 162 608 160 l 608 0 q 559 -10 528 -10 q 431 -10 416 63 l 412 82 q 375 33 324 12 q 273 -10 207 -10 z"},"]":{"x_min":0,"x_max":371,"ha":371,"o":"m 47 -40 l 47 110 l 117 110 l 117 590 l 47 590 l 47 740 l 292 740 l 292 -40 z"},"U":{"x_min":0,"x_max":743,"ha":743,"o":"m 371 167 q 405 167 429 182 q 453 197 468 222 q 483 246 490 278 q 497 310 497 345 l 497 710 l 692 710 l 692 345 q 692 271 673 206 q 654 142 614 95 q 574 48 514 21 q 453 -6 371 -6 q 286 -6 226 22 q 165 51 126 99 q 87 147 69 210 q 51 274 51 345 l 51 710 l 246 710 l 246 345 q 246 310 253 278 q 260 245 275 220 q 290 196 314 182 q 337 167 371 167 z"},"o":{"x_min":0,"x_max":614,"ha":614,"o":"m 307 -10 q 236 -10 182 12 q 129 35 92 72 q 56 110 38 160 q 19 209 19 263 q 19 317 38 366 q 56 416 92 454 q 129 491 182 514 q 236 536 307 536 q 377 536 431 514 q 485 491 522 454 q 558 416 576 366 q 595 317 595 263 q 595 209 576 160 q 558 110 522 72 q 485 35 431 12 q 377 -10 307 -10 z m 214 263 q 214 210 240 180 q 266 150 307 150 q 348 150 374 180 q 400 210 400 263 q 400 316 374 346 q 348 376 307 376 q 266 376 240 346 q 214 316 214 263 z"},"N":{"x_min":0,"x_max":754,"ha":754,"o":"m 256 349 l 256 0 l 61 0 l 61 710 l 213 710 l 498 349 l 498 710 l 693 710 l 693 0 l 538 0 z"},"+":{"x_min":0,"x_max":428,"ha":428,"o":"m 384 430 l 384 280 l 299 280 l 299 185 l 129 185 l 129 280 l 44 280 l 44 430 l 129 430 l 129 525 l 299 525 l 299 430 z"},"G":{"x_min":0,"x_max":739,"ha":739,"o":"m 543 59 q 467 -5 368 -5 q 299 -5 236 20 q 173 44 126 91 q 79 138 51 206 q 23 274 23 361 q 23 436 51 500 q 79 565 128 612 q 177 660 244 688 q 310 715 387 715 q 435 715 479 704 q 523 694 560 674 q 598 653 628 624 q 658 596 677 560 l 532 449 q 511 491 469 516 q 427 542 380 542 q 345 542 316 528 q 287 514 266 489 q 245 464 233 430 q 221 395 221 354 q 221 312 233 278 q 245 244 266 220 q 288 195 318 182 q 348 168 385 168 q 470 168 535 238 l 412 238 l 412 378 l 704 378 l 704 0 l 543 0 z"},"q":{"x_min":0,"x_max":647,"ha":647,"o":"m 245 -10 q 197 -10 156 10 q 115 31 85 68 q 55 105 38 156 q 21 206 21 265 q 21 323 40 373 q 58 423 90 459 q 122 495 166 516 q 211 536 264 536 q 324 536 365 512 q 406 488 434 445 l 434 526 l 599 526 l 599 7 q 599 -20 609 -30 q 619 -41 645 -43 l 645 -203 q 620 -208 591 -210 q 562 -213 540 -213 q 513 -213 490 -204 q 466 -196 448 -181 q 430 -166 420 -144 q 409 -123 409 -96 l 409 78 q 386 35 344 12 q 302 -10 245 -10 z m 319 150 q 371 150 409 204 l 409 298 q 395 333 368 354 q 341 376 311 376 q 290 376 272 367 q 255 358 242 342 q 230 326 222 305 q 215 284 215 260 q 215 210 244 180 q 272 150 319 150 z"},"d":{"x_min":0,"x_max":665,"ha":665,"o":"m 268 -10 q 214 -10 168 10 q 123 30 90 66 q 57 103 38 154 q 20 204 20 264 q 20 322 37 372 q 54 422 84 458 q 115 495 157 516 q 199 536 250 536 q 301 536 344 513 q 386 490 409 448 l 409 730 l 599 730 l 599 210 q 599 183 607 172 q 615 162 635 160 l 635 0 q 586 -10 555 -10 q 458 -10 443 63 l 439 82 q 412 34 366 12 q 320 -10 268 -10 z m 320 150 q 372 150 410 204 l 410 298 q 396 333 369 354 q 342 376 312 376 q 291 376 274 367 q 256 358 244 342 q 231 326 224 305 q 216 284 216 260 q 216 210 244 180 q 273 150 320 150 z"},"1":{"x_min":0,"x_max":547,"ha":547,"o":"m 523 170 l 523 0 l 60 0 l 60 170 l 202 170 l 202 369 q 193 357 174 346 q 155 334 132 324 q 108 314 84 308 q 60 302 41 302 l 41 476 q 55 476 80 486 q 105 497 130 512 q 155 526 176 542 q 196 559 202 571 l 396 571 l 396 170 z"},"5":{"x_min":0,"x_max":562,"ha":562,"o":"m 300 326 q 352 326 395 309 q 438 292 470 262 q 501 231 518 188 q 536 146 536 95 q 536 41 516 -4 q 496 -49 460 -81 q 423 -113 372 -131 q 322 -149 261 -149 q 183 -149 120 -120 q 58 -91 24 -37 l 128 83 q 157 52 192 34 q 228 17 262 17 q 299 17 320 37 q 341 57 341 91 q 341 124 322 144 q 303 164 272 164 q 251 164 234 154 q 216 145 207 129 l 44 129 l 128 571 l 484 571 l 484 398 l 265 398 l 254 321 q 258 322 265 323 q 270 324 279 325 q 288 326 300 326 z"}}}
